<?xml version="1.0" encoding="utf-8"?>
<!-- Generator: Adobe Illustrator 21.0.0, SVG Export Plug-In . SVG Version: 6.00 Build 0)  -->
<svg version="1.1" id="Layer_1" xmlns="http://www.w3.org/2000/svg" xmlns:xlink="http://www.w3.org/1999/xlink" x="0px" y="0px"
	 viewBox="0 0 50 50" style="enable-background:new 0 0 50 50;" xml:space="preserve">
<style type="text/css">
	.st0{fill:none;stroke:#000000;stroke-linecap:round;stroke-linejoin:round;stroke-miterlimit:10;}
</style>
<path class="st0" d="M8.8,17.3c-0.9-1.2-1.9-1.2-3.1-1c-1.4,0.2-2.3,1.9-2.4,3.4c0,0.8,0.2,1.6,0.7,2.1c0.5,0.4,1.2,0.6,1.8,0.6
	c1.5,0,3-0.8,4-2.1c1-1.3,1.3-3,1-4.6c0-0.2-0.1-0.5-0.4-0.6c-0.1,0-0.3,0-0.4,0.1C9.4,15.6,8.9,16.4,8.8,17.3S8.7,19.1,8.7,20
	c0.1,2.3,0,4.6-0.1,6.8c-0.2,3.2-0.7,6.8-3,9c-0.9,0.8-2.3,1.4-3.1,0.5C2.3,36,2.1,35.7,2,35.4c-0.3-0.9-0.2-2,0.2-2.9
	c0.6-1.4,1.8-2.4,3-3.3c3.3-2.5,12.7-9.8,12.9-11.6c0-0.3,0-0.7-0.2-1c-0.4-0.5-1.2-0.3-1.8,0c-0.7,0.4-1.5,1.2-1.2,2
	c0.3,0.9,1.6,0.9,2.5,0.5c1.4-0.6,2.8-1.3,4-2.3c-0.8,1.8-1.3,3.8-1.6,5.7c-0.1,0.5-0.1,1,0.1,1.3c0.2,0.2,0.4,0.4,0.7,0.5
	c1.8,0.6,3.6-0.9,4.9-2.2c1.2-1.1,2.3-2.4,2.8-4c0.1-0.3,0.1-0.6,0-0.8c-0.1-0.3-0.5-0.5-0.8-0.5c-0.7,0-1.4,0.6-1.7,1.3
	c-0.3,0.7-0.4,1.5-0.4,2.3c0,0.8,0.2,1.5,0.5,2.2c0.7,1.3,2.4,1.8,3.8,1.5c1.4-0.3,2.6-1.3,3.6-2.4c0.9-1,1.7-2.4,1.4-3.8
	c-0.8-0.6-2,0.2-2.4,1.1c-0.7,1.6-0.2,3.7,1.2,4.7c0.4,0.3,0.9,0.5,1.3,0.5c1.1,0,1.9-1.1,2.5-2c1-1.5,1.9-3,2.8-4.5
	c-1,2-2.3,5.7-1.6,6.5c2,1.5,1.7-2.8,3.4-5c0.3-0.4,0.7-0.7,1.2-0.8c0.5-0.1,1,0,1.3,0.4c0.2,0.3,0.2,0.7,0.2,1.1
	c0,1.2-0.1,2.3-0.1,3.5c0,0.4,0.3,1.5,1.2,1.5c1.2,0,2.1-0.5,3.2-1.3"/>
</svg>
