<?xml version="1.0" encoding="utf-8"?>
<!-- Generator: Adobe Illustrator 21.0.0, SVG Export Plug-In . SVG Version: 6.00 Build 0)  -->
<svg version="1.1" id="Layer_1" xmlns="http://www.w3.org/2000/svg" xmlns:xlink="http://www.w3.org/1999/xlink" x="0px" y="0px"
	 viewBox="0 0 1280 1024" style="enable-background:new 0 0 1280 1024;" xml:space="preserve">
<g>
	<g>
		<path d="M153.7,68c-17.5-13.5-42.8-13.4-61.1-1.2c-9.1,6-18.1,16.2-19.1,27.5c-1.1,12.6,10.9,21.2,22.4,21.6
			c13.7,0.5,27.4-8,37.5-16.6c10.3-8.6,18.6-19.7,24-31.9c3.9-8.9,9.8-23.1,3-32.1c-8.6-11.5-20.7,4.8-24.2,12.5
			c-5.7,12.6-6.1,26.7-7.5,40.2c-1.8,17-5.1,33.9-9.8,50.3c-4.6,16.1-10.4,32.1-17.8,47.1c-5.6,11.4-15,26-29.7,24.6
			c-13-1.2-24.6-14.1-21.8-27.3c3.1-15.2,19.2-26,30.7-34.7c13.4-10.1,27.7-19,42.7-26.7c13-6.7,26.4-12.4,39-19.9
			c11.3-6.7,25.6-15.8,31.2-28.3c2.2-4.9,2.3-10.6-0.8-15.2c-2.2-3.4-7.3-7.1-11-3.7c-6.2,5.8,0.5,18.8,8.8,16.9
			c3-0.7,5.8-3.2,8.2-5c3.5-2.7,6.9-5.6,10.7-7.8c2.5-1.5,5.8-3.6,7.5-0.2c0-1,0-2,0-3c-6.8,13.7-20,23.3-26.5,37.2
			c-2.2,4.8-3.3,10.4,0.3,14.8c3.9,4.7,12.1,2.7,17.2,1.2c14.1-4,26.8-14.1,35.8-25.4c4.6-5.8,15-20,7.9-27.5
			c-3.7-3.9-12-3-16.2-0.4c-4.8,3-7.3,8.7-8.9,13.9c-2.1,6.9-2.9,14.3-3.4,21.5c-0.4,5.4-1.3,10.4,2.8,14.6
			c5.8,6.1,15.1,4.4,22.3,2.2c8.6-2.6,16.3-7.4,23-13.3c6.2-5.5,15.7-14.1,16.3-23.1c0.5-7.8-7-12.3-14.1-10.5
			c-9.6,2.4-14.3,14.7-17.1,23.1c-2.9,8.8-1.8,20.3,7.8,24.4c10.3,4.4,18-6.8,23.3-13.8c7.6-10,14-20.9,19-32.4
			c1.5-3.5-3.4-6.5-5.2-3c-7.4,14.6-11.7,30.3-12.8,46.7c-0.2,3.6,4.7,3.7,5.9,0.8c4-10.1,8.7-20.1,14.8-29.1c2.4-3.5,5.3-8,9.3-9.9
			c6-2.9,5.3,7.4,4.9,10.9c-1.3,11.3-6.9,27.6,4.7,35.5c11.6,8,25,0.6,34.7-6.7c3.1-2.3,0.1-7.5-3-5.2c-6.4,4.8-14.1,10.5-22.6,9.1
			c-9.8-1.6-10.7-10.2-9.9-18.6c0.8-8,7.6-28.6-4.7-31.5c-8-1.9-14.7,7.7-18.5,13.3c-6.4,9.4-11.2,20-15.4,30.5
			c2,0.3,3.9,0.5,5.9,0.8c1-15.3,5.1-30,12-43.6c-1.7-1-3.5-2-5.2-3c-4.4,9.9-9.7,19.4-16,28.3c-3.2,4.4-6.5,9.2-10.5,12.9
			c-5.4,5-12,2.7-13.7-4.4c-1.5-5.9,1.6-12.3,4.1-17.6c2-4.2,4.3-9.8,9.1-11.4c2.3-0.8,5.4-0.7,6.8,1.6c2.1,3.3-1.7,8.2-3.6,10.7
			c-3.1,4-6.6,7.7-10.4,11c-7.4,6.5-16.3,11.4-26.1,13.1c-3.9,0.6-8.8,0.9-11.3-2.8c-1.5-2.2-0.8-5-0.6-7.6
			c0.6-8.8,0.9-32.5,13.4-33.7c2.3-0.2,4.8-0.1,5.4,1.9c0.6,1.9-0.4,4.5-1.1,6.3c-2.2,6-6.4,11.3-10.7,15.9
			c-10.4,11.3-23.3,19.6-38.7,21c-1.3,0.1-1.5,0.5-2.1-1c-0.5-1-0.7-1.8-0.7-3c0.1-3,1.9-6.1,3.5-8.6c4.3-6.9,9.9-13,14.9-19.4
			c2.9-3.6,11.2-12,9.4-16.9c-1.7-4.6-6.8-5.5-10.9-4.2c-5.3,1.7-9.9,5.7-14.2,9.1c-2,1.5-4,3.2-6.2,4.5c-2.6,1.4-5.3-0.5-5.5-3.6
			c-0.2-3.6,2.3,0,2.9,1.4c1.1,2.3,1,4.8,0.3,7.2c-1.7,5.3-6.4,9.6-10.4,13.2c-7.7,7.1-16.7,12.6-25.9,17.5
			c-19.3,10.3-39.3,18.9-57.7,30.8c-9.3,6-18.2,12.5-26.8,19.5c-7.6,6.1-15.3,12.7-20.1,21.4c-8.4,15.1-2.7,33,12.8,40.9
			c16.2,8.2,31.6-0.8,40.8-14.7c5.5-8.3,9.4-17.8,13.1-27.1c4.4-10.7,8.1-21.7,11.2-32.9c6-21.8,8.4-43.7,11.1-66
			c1.2-10,3.2-20.5,9.3-28.7c3.1-4.1,9.2-9.2,11.2-1.6c1.1,4.3,0,8.7-1.2,12.8c-5.5,19.1-18.2,36-35,46.7
			c-8.8,5.6-20.9,11.6-31.4,7.4c-4.4-1.7-8.4-5.3-9.6-10c-1.4-5.6,1.7-11.5,4.8-16c9.3-13.4,26.3-20,42.2-18.9
			c8.1,0.6,16.1,3.4,22.6,8.4C152.5,74.5,156.8,70.3,153.7,68L153.7,68z"/>
	</g>
</g>
</svg>
